<svg xmlns="http://www.w3.org/2000/svg" width="480" height="250" viewBox="0 0 480 250">
  <rect x="2" y="2" width="476" height="246" rx="10" ry="10" fill="#050805" stroke="#00FF00" stroke-width="1.5" stroke-opacity="0.6"/>
  <path d="M2 12 C2 6.477 6.477 2 12 2 L468 2 C473.523 2 478 6.477 478 12 L478 38 L2 38 Z" fill="#0e160e"/>
  <line x1="2" y1="38" x2="478" y2="38" stroke="#00FF00" stroke-width="1" stroke-opacity="0.3"/>
  
  <circle cx="20" cy="20" r="5" fill="#FF5F56"/>
  <circle cx="36" cy="20" r="5" fill="#FFBD2E"/>
  <circle cx="52" cy="20" r="5" fill="#27C93F"/>
  
  <text x="70" y="24" fill="#00FF00" font-family="'Fira Code', 'Courier New', monospace" font-size="12" font-weight="bold">&gt;_ codebroai_studio.sh</text>
  
  <rect x="385" y="10" width="75" height="20" rx="4" fill="#002200" stroke="#00FF00" stroke-width="1"/>
  <text x="422.5" y="24" fill="#00FF00" font-family="sans-serif" font-size="10" font-weight="bold" text-anchor="middle">● LIVE</text>
  
  <text x="24" y="72" fill="#FFFFFF" font-family="'Segoe UI', Ubuntu, sans-serif" font-size="17" font-weight="bold">CodebroAI Studio</text>
  <text x="24" y="93" fill="#00FF00" font-family="'Segoe UI', Ubuntu, sans-serif" font-size="12" font-weight="600">Official Agency &amp; Digital Studio</text>
  
  <text x="24" y="118" fill="#A0A0A0" font-family="'Segoe UI', Ubuntu, sans-serif" font-size="12">Enterprise digital transformation showcase and</text>
  <text x="24" y="136" fill="#A0A0A0" font-family="'Segoe UI', Ubuntu, sans-serif" font-size="12">high-performance edge web infrastructure.</text>
  
  <rect x="24" y="160" width="72" height="22" rx="4" fill="#0d170d" stroke="#00FF00" stroke-width="1" stroke-opacity="0.4"/><text x="60.0" y="175" fill="#00FF00" font-family="monospace" font-size="11" text-anchor="middle">Next.js</text><rect x="104" y="160" width="56" height="22" rx="4" fill="#0d170d" stroke="#00FF00" stroke-width="1" stroke-opacity="0.4"/><text x="132.0" y="175" fill="#00FF00" font-family="monospace" font-size="11" text-anchor="middle">React</text><rect x="168" y="160" width="96" height="22" rx="4" fill="#0d170d" stroke="#00FF00" stroke-width="1" stroke-opacity="0.4"/><text x="216.0" y="175" fill="#00FF00" font-family="monospace" font-size="11" text-anchor="middle">Cloudflare</text>
  
  <rect x="24" y="198" width="130" height="28" rx="5" fill="#00FF00" fill-opacity="0.12" stroke="#00FF00" stroke-width="1"/>
  <text x="89" y="216" fill="#00FF00" font-family="'Fira Code', monospace" font-size="11" font-weight="bold" text-anchor="middle">VISIT STUDIO ↗</text>
</svg>